<?xml version="1.0" encoding="utf-8" standalone="no"?>
<!DOCTYPE svg PUBLIC "-//W3C//DTD SVG 1.1//EN"
  "http://www.w3.org/Graphics/SVG/1.1/DTD/svg11.dtd">
<svg xmlns:xlink="http://www.w3.org/1999/xlink" width="1000.340625pt" height="388.844525pt" viewBox="0 0 1000.340625 388.844525" xmlns="http://www.w3.org/2000/svg" version="1.1">
 <metadata>
  <rdf:RDF xmlns:dc="http://purl.org/dc/elements/1.1/" xmlns:cc="http://creativecommons.org/ns#" xmlns:rdf="http://www.w3.org/1999/02/22-rdf-syntax-ns#">
   <cc:Work>
    <dc:type rdf:resource="http://purl.org/dc/dcmitype/StillImage"/>
    <dc:date>2024-07-07T12:56:40.731998</dc:date>
    <dc:format>image/svg+xml</dc:format>
    <dc:creator>
     <cc:Agent>
      <dc:title>Matplotlib v3.7.2, https://matplotlib.org/</dc:title>
     </cc:Agent>
    </dc:creator>
   </cc:Work>
  </rdf:RDF>
 </metadata>
 <defs>
  <style type="text/css">*{stroke-linejoin: round; stroke-linecap: butt}</style>
 </defs>
 <g id="figure_1">
  <g id="axes_1">
   <g id="patch_1">
    <path d="M 40.600625 353.2239 
L 993.140625 353.2239 
L 993.140625 35.2559 
L 40.600625 35.2559 
z
" style="fill: #ffffff"/>
   </g>
   <g id="patch_2">
    <path d="M 677.142868 353.2239 
L 2313.96578 353.2239 
L 2313.96578 35.2559 
L 677.142868 35.2559 
z
" clip-path="url(#pb21c4d310f)" style="fill: #c3e6c3"/>
   </g>
   <g id="patch_3">
    <path d="M 495.273656 353.2239 
L 677.142868 353.2239 
L 677.142868 35.2559 
L 495.273656 35.2559 
z
" clip-path="url(#pb21c4d310f)" style="fill: #e6dcc3"/>
   </g>
   <g id="patch_4">
    <path d="M 40.600625 353.2239 
L 495.273656 353.2239 
L 495.273656 35.2559 
L 40.600625 35.2559 
z
" clip-path="url(#pb21c4d310f)" style="fill: #e6c3c3"/>
   </g>
   <g id="matplotlib.axis_1">
    <g id="xtick_1">
     <g id="text_1">
      <!-- 0 -->
      <g transform="translate(38.055625 366.30265) scale(0.08 -0.08)">
       <defs>
        <path id="DejaVuSans-30" d="M 2034 4250 
Q 1547 4250 1301 3770 
Q 1056 3291 1056 2328 
Q 1056 1369 1301 889 
Q 1547 409 2034 409 
Q 2525 409 2770 889 
Q 3016 1369 3016 2328 
Q 3016 3291 2770 3770 
Q 2525 4250 2034 4250 
z
M 2034 4750 
Q 2819 4750 3233 4129 
Q 3647 3509 3647 2328 
Q 3647 1150 3233 529 
Q 2819 -91 2034 -91 
Q 1250 -91 836 529 
Q 422 1150 422 2328 
Q 422 3509 836 4129 
Q 1250 4750 2034 4750 
z
" transform="scale(0.015625)"/>
       </defs>
       <use xlink:href="#DejaVuSans-30"/>
      </g>
     </g>
    </g>
    <g id="xtick_2">
     <g id="text_2">
      <!-- 5 -->
      <g transform="translate(151.723883 366.30265) scale(0.08 -0.08)">
       <defs>
        <path id="DejaVuSans-35" d="M 691 4666 
L 3169 4666 
L 3169 4134 
L 1269 4134 
L 1269 2991 
Q 1406 3038 1543 3061 
Q 1681 3084 1819 3084 
Q 2600 3084 3056 2656 
Q 3513 2228 3513 1497 
Q 3513 744 3044 326 
Q 2575 -91 1722 -91 
Q 1428 -91 1123 -41 
Q 819 9 494 109 
L 494 744 
Q 775 591 1075 516 
Q 1375 441 1709 441 
Q 2250 441 2565 725 
Q 2881 1009 2881 1497 
Q 2881 1984 2565 2268 
Q 2250 2553 1709 2553 
Q 1456 2553 1204 2497 
Q 953 2441 691 2322 
L 691 4666 
z
" transform="scale(0.015625)"/>
       </defs>
       <use xlink:href="#DejaVuSans-35"/>
      </g>
     </g>
    </g>
    <g id="xtick_3">
     <g id="text_3">
      <!-- 10 -->
      <g transform="translate(262.847141 366.30265) scale(0.08 -0.08)">
       <defs>
        <path id="DejaVuSans-31" d="M 794 531 
L 1825 531 
L 1825 4091 
L 703 3866 
L 703 4441 
L 1819 4666 
L 2450 4666 
L 2450 531 
L 3481 531 
L 3481 0 
L 794 0 
L 794 531 
z
" transform="scale(0.015625)"/>
       </defs>
       <use xlink:href="#DejaVuSans-31"/>
       <use xlink:href="#DejaVuSans-30" x="63.623047"/>
      </g>
     </g>
    </g>
    <g id="xtick_4">
     <g id="text_4">
      <!-- 15 -->
      <g transform="translate(376.515398 366.30265) scale(0.08 -0.08)">
       <use xlink:href="#DejaVuSans-31"/>
       <use xlink:href="#DejaVuSans-35" x="63.623047"/>
      </g>
     </g>
    </g>
    <g id="xtick_5">
     <g id="text_5">
      <!-- 20 -->
      <g transform="translate(490.183656 366.30265) scale(0.08 -0.08)">
       <defs>
        <path id="DejaVuSans-32" d="M 1228 531 
L 3431 531 
L 3431 0 
L 469 0 
L 469 531 
Q 828 903 1448 1529 
Q 2069 2156 2228 2338 
Q 2531 2678 2651 2914 
Q 2772 3150 2772 3378 
Q 2772 3750 2511 3984 
Q 2250 4219 1831 4219 
Q 1534 4219 1204 4116 
Q 875 4013 500 3803 
L 500 4441 
Q 881 4594 1212 4672 
Q 1544 4750 1819 4750 
Q 2544 4750 2975 4387 
Q 3406 4025 3406 3419 
Q 3406 3131 3298 2873 
Q 3191 2616 2906 2266 
Q 2828 2175 2409 1742 
Q 1991 1309 1228 531 
z
" transform="scale(0.015625)"/>
       </defs>
       <use xlink:href="#DejaVuSans-32"/>
       <use xlink:href="#DejaVuSans-30" x="63.623047"/>
      </g>
     </g>
    </g>
    <g id="xtick_6">
     <g id="text_6">
      <!-- 25 -->
      <g transform="translate(603.851914 366.30265) scale(0.08 -0.08)">
       <use xlink:href="#DejaVuSans-32"/>
       <use xlink:href="#DejaVuSans-35" x="63.623047"/>
      </g>
     </g>
    </g>
    <g id="xtick_7">
     <g id="text_7">
      <!-- 30 -->
      <g transform="translate(717.520172 366.30265) scale(0.08 -0.08)">
       <defs>
        <path id="DejaVuSans-33" d="M 2597 2516 
Q 3050 2419 3304 2112 
Q 3559 1806 3559 1356 
Q 3559 666 3084 287 
Q 2609 -91 1734 -91 
Q 1441 -91 1130 -33 
Q 819 25 488 141 
L 488 750 
Q 750 597 1062 519 
Q 1375 441 1716 441 
Q 2309 441 2620 675 
Q 2931 909 2931 1356 
Q 2931 1769 2642 2001 
Q 2353 2234 1838 2234 
L 1294 2234 
L 1294 2753 
L 1863 2753 
Q 2328 2753 2575 2939 
Q 2822 3125 2822 3475 
Q 2822 3834 2567 4026 
Q 2313 4219 1838 4219 
Q 1578 4219 1281 4162 
Q 984 4106 628 3988 
L 628 4550 
Q 988 4650 1302 4700 
Q 1616 4750 1894 4750 
Q 2613 4750 3031 4423 
Q 3450 4097 3450 3541 
Q 3450 3153 3228 2886 
Q 3006 2619 2597 2516 
z
" transform="scale(0.015625)"/>
       </defs>
       <use xlink:href="#DejaVuSans-33"/>
       <use xlink:href="#DejaVuSans-30" x="63.623047"/>
      </g>
     </g>
    </g>
    <g id="xtick_8">
     <g id="text_8">
      <!-- 35 -->
      <g transform="translate(831.188429 366.30265) scale(0.08 -0.08)">
       <use xlink:href="#DejaVuSans-33"/>
       <use xlink:href="#DejaVuSans-35" x="63.623047"/>
      </g>
     </g>
    </g>
    <g id="xtick_9">
     <g id="text_9">
      <!-- 40 -->
      <g transform="translate(944.856687 366.30265) scale(0.08 -0.08)">
       <defs>
        <path id="DejaVuSans-34" d="M 2419 4116 
L 825 1625 
L 2419 1625 
L 2419 4116 
z
M 2253 4666 
L 3047 4666 
L 3047 1625 
L 3713 1625 
L 3713 1100 
L 3047 1100 
L 3047 0 
L 2419 0 
L 2419 1100 
L 313 1100 
L 313 1709 
L 2253 4666 
z
" transform="scale(0.015625)"/>
       </defs>
       <use xlink:href="#DejaVuSans-34"/>
       <use xlink:href="#DejaVuSans-30" x="63.623047"/>
      </g>
     </g>
    </g>
    <g id="text_10">
     <!-- Mean Sequence Quality (Phred Score) -->
     <g transform="translate(422.078438 379.564837) scale(0.1 -0.1)">
      <defs>
       <path id="DejaVuSans-4d" d="M 628 4666 
L 1569 4666 
L 2759 1491 
L 3956 4666 
L 4897 4666 
L 4897 0 
L 4281 0 
L 4281 4097 
L 3078 897 
L 2444 897 
L 1241 4097 
L 1241 0 
L 628 0 
L 628 4666 
z
" transform="scale(0.015625)"/>
       <path id="DejaVuSans-65" d="M 3597 1894 
L 3597 1613 
L 953 1613 
Q 991 1019 1311 708 
Q 1631 397 2203 397 
Q 2534 397 2845 478 
Q 3156 559 3463 722 
L 3463 178 
Q 3153 47 2828 -22 
Q 2503 -91 2169 -91 
Q 1331 -91 842 396 
Q 353 884 353 1716 
Q 353 2575 817 3079 
Q 1281 3584 2069 3584 
Q 2775 3584 3186 3129 
Q 3597 2675 3597 1894 
z
M 3022 2063 
Q 3016 2534 2758 2815 
Q 2500 3097 2075 3097 
Q 1594 3097 1305 2825 
Q 1016 2553 972 2059 
L 3022 2063 
z
" transform="scale(0.015625)"/>
       <path id="DejaVuSans-61" d="M 2194 1759 
Q 1497 1759 1228 1600 
Q 959 1441 959 1056 
Q 959 750 1161 570 
Q 1363 391 1709 391 
Q 2188 391 2477 730 
Q 2766 1069 2766 1631 
L 2766 1759 
L 2194 1759 
z
M 3341 1997 
L 3341 0 
L 2766 0 
L 2766 531 
Q 2569 213 2275 61 
Q 1981 -91 1556 -91 
Q 1019 -91 701 211 
Q 384 513 384 1019 
Q 384 1609 779 1909 
Q 1175 2209 1959 2209 
L 2766 2209 
L 2766 2266 
Q 2766 2663 2505 2880 
Q 2244 3097 1772 3097 
Q 1472 3097 1187 3025 
Q 903 2953 641 2809 
L 641 3341 
Q 956 3463 1253 3523 
Q 1550 3584 1831 3584 
Q 2591 3584 2966 3190 
Q 3341 2797 3341 1997 
z
" transform="scale(0.015625)"/>
       <path id="DejaVuSans-6e" d="M 3513 2113 
L 3513 0 
L 2938 0 
L 2938 2094 
Q 2938 2591 2744 2837 
Q 2550 3084 2163 3084 
Q 1697 3084 1428 2787 
Q 1159 2491 1159 1978 
L 1159 0 
L 581 0 
L 581 3500 
L 1159 3500 
L 1159 2956 
Q 1366 3272 1645 3428 
Q 1925 3584 2291 3584 
Q 2894 3584 3203 3211 
Q 3513 2838 3513 2113 
z
" transform="scale(0.015625)"/>
       <path id="DejaVuSans-20" transform="scale(0.015625)"/>
       <path id="DejaVuSans-53" d="M 3425 4513 
L 3425 3897 
Q 3066 4069 2747 4153 
Q 2428 4238 2131 4238 
Q 1616 4238 1336 4038 
Q 1056 3838 1056 3469 
Q 1056 3159 1242 3001 
Q 1428 2844 1947 2747 
L 2328 2669 
Q 3034 2534 3370 2195 
Q 3706 1856 3706 1288 
Q 3706 609 3251 259 
Q 2797 -91 1919 -91 
Q 1588 -91 1214 -16 
Q 841 59 441 206 
L 441 856 
Q 825 641 1194 531 
Q 1563 422 1919 422 
Q 2459 422 2753 634 
Q 3047 847 3047 1241 
Q 3047 1584 2836 1778 
Q 2625 1972 2144 2069 
L 1759 2144 
Q 1053 2284 737 2584 
Q 422 2884 422 3419 
Q 422 4038 858 4394 
Q 1294 4750 2059 4750 
Q 2388 4750 2728 4690 
Q 3069 4631 3425 4513 
z
" transform="scale(0.015625)"/>
       <path id="DejaVuSans-71" d="M 947 1747 
Q 947 1113 1208 752 
Q 1469 391 1925 391 
Q 2381 391 2643 752 
Q 2906 1113 2906 1747 
Q 2906 2381 2643 2742 
Q 2381 3103 1925 3103 
Q 1469 3103 1208 2742 
Q 947 2381 947 1747 
z
M 2906 525 
Q 2725 213 2448 61 
Q 2172 -91 1784 -91 
Q 1150 -91 751 415 
Q 353 922 353 1747 
Q 353 2572 751 3078 
Q 1150 3584 1784 3584 
Q 2172 3584 2448 3432 
Q 2725 3281 2906 2969 
L 2906 3500 
L 3481 3500 
L 3481 -1331 
L 2906 -1331 
L 2906 525 
z
" transform="scale(0.015625)"/>
       <path id="DejaVuSans-75" d="M 544 1381 
L 544 3500 
L 1119 3500 
L 1119 1403 
Q 1119 906 1312 657 
Q 1506 409 1894 409 
Q 2359 409 2629 706 
Q 2900 1003 2900 1516 
L 2900 3500 
L 3475 3500 
L 3475 0 
L 2900 0 
L 2900 538 
Q 2691 219 2414 64 
Q 2138 -91 1772 -91 
Q 1169 -91 856 284 
Q 544 659 544 1381 
z
M 1991 3584 
L 1991 3584 
z
" transform="scale(0.015625)"/>
       <path id="DejaVuSans-63" d="M 3122 3366 
L 3122 2828 
Q 2878 2963 2633 3030 
Q 2388 3097 2138 3097 
Q 1578 3097 1268 2742 
Q 959 2388 959 1747 
Q 959 1106 1268 751 
Q 1578 397 2138 397 
Q 2388 397 2633 464 
Q 2878 531 3122 666 
L 3122 134 
Q 2881 22 2623 -34 
Q 2366 -91 2075 -91 
Q 1284 -91 818 406 
Q 353 903 353 1747 
Q 353 2603 823 3093 
Q 1294 3584 2113 3584 
Q 2378 3584 2631 3529 
Q 2884 3475 3122 3366 
z
" transform="scale(0.015625)"/>
       <path id="DejaVuSans-51" d="M 2522 4238 
Q 1834 4238 1429 3725 
Q 1025 3213 1025 2328 
Q 1025 1447 1429 934 
Q 1834 422 2522 422 
Q 3209 422 3611 934 
Q 4013 1447 4013 2328 
Q 4013 3213 3611 3725 
Q 3209 4238 2522 4238 
z
M 3406 84 
L 4238 -825 
L 3475 -825 
L 2784 -78 
Q 2681 -84 2626 -87 
Q 2572 -91 2522 -91 
Q 1538 -91 948 567 
Q 359 1225 359 2328 
Q 359 3434 948 4092 
Q 1538 4750 2522 4750 
Q 3503 4750 4090 4092 
Q 4678 3434 4678 2328 
Q 4678 1516 4351 937 
Q 4025 359 3406 84 
z
" transform="scale(0.015625)"/>
       <path id="DejaVuSans-6c" d="M 603 4863 
L 1178 4863 
L 1178 0 
L 603 0 
L 603 4863 
z
" transform="scale(0.015625)"/>
       <path id="DejaVuSans-69" d="M 603 3500 
L 1178 3500 
L 1178 0 
L 603 0 
L 603 3500 
z
M 603 4863 
L 1178 4863 
L 1178 4134 
L 603 4134 
L 603 4863 
z
" transform="scale(0.015625)"/>
       <path id="DejaVuSans-74" d="M 1172 4494 
L 1172 3500 
L 2356 3500 
L 2356 3053 
L 1172 3053 
L 1172 1153 
Q 1172 725 1289 603 
Q 1406 481 1766 481 
L 2356 481 
L 2356 0 
L 1766 0 
Q 1100 0 847 248 
Q 594 497 594 1153 
L 594 3053 
L 172 3053 
L 172 3500 
L 594 3500 
L 594 4494 
L 1172 4494 
z
" transform="scale(0.015625)"/>
       <path id="DejaVuSans-79" d="M 2059 -325 
Q 1816 -950 1584 -1140 
Q 1353 -1331 966 -1331 
L 506 -1331 
L 506 -850 
L 844 -850 
Q 1081 -850 1212 -737 
Q 1344 -625 1503 -206 
L 1606 56 
L 191 3500 
L 800 3500 
L 1894 763 
L 2988 3500 
L 3597 3500 
L 2059 -325 
z
" transform="scale(0.015625)"/>
       <path id="DejaVuSans-28" d="M 1984 4856 
Q 1566 4138 1362 3434 
Q 1159 2731 1159 2009 
Q 1159 1288 1364 580 
Q 1569 -128 1984 -844 
L 1484 -844 
Q 1016 -109 783 600 
Q 550 1309 550 2009 
Q 550 2706 781 3412 
Q 1013 4119 1484 4856 
L 1984 4856 
z
" transform="scale(0.015625)"/>
       <path id="DejaVuSans-50" d="M 1259 4147 
L 1259 2394 
L 2053 2394 
Q 2494 2394 2734 2622 
Q 2975 2850 2975 3272 
Q 2975 3691 2734 3919 
Q 2494 4147 2053 4147 
L 1259 4147 
z
M 628 4666 
L 2053 4666 
Q 2838 4666 3239 4311 
Q 3641 3956 3641 3272 
Q 3641 2581 3239 2228 
Q 2838 1875 2053 1875 
L 1259 1875 
L 1259 0 
L 628 0 
L 628 4666 
z
" transform="scale(0.015625)"/>
       <path id="DejaVuSans-68" d="M 3513 2113 
L 3513 0 
L 2938 0 
L 2938 2094 
Q 2938 2591 2744 2837 
Q 2550 3084 2163 3084 
Q 1697 3084 1428 2787 
Q 1159 2491 1159 1978 
L 1159 0 
L 581 0 
L 581 4863 
L 1159 4863 
L 1159 2956 
Q 1366 3272 1645 3428 
Q 1925 3584 2291 3584 
Q 2894 3584 3203 3211 
Q 3513 2838 3513 2113 
z
" transform="scale(0.015625)"/>
       <path id="DejaVuSans-72" d="M 2631 2963 
Q 2534 3019 2420 3045 
Q 2306 3072 2169 3072 
Q 1681 3072 1420 2755 
Q 1159 2438 1159 1844 
L 1159 0 
L 581 0 
L 581 3500 
L 1159 3500 
L 1159 2956 
Q 1341 3275 1631 3429 
Q 1922 3584 2338 3584 
Q 2397 3584 2469 3576 
Q 2541 3569 2628 3553 
L 2631 2963 
z
" transform="scale(0.015625)"/>
       <path id="DejaVuSans-64" d="M 2906 2969 
L 2906 4863 
L 3481 4863 
L 3481 0 
L 2906 0 
L 2906 525 
Q 2725 213 2448 61 
Q 2172 -91 1784 -91 
Q 1150 -91 751 415 
Q 353 922 353 1747 
Q 353 2572 751 3078 
Q 1150 3584 1784 3584 
Q 2172 3584 2448 3432 
Q 2725 3281 2906 2969 
z
M 947 1747 
Q 947 1113 1208 752 
Q 1469 391 1925 391 
Q 2381 391 2643 752 
Q 2906 1113 2906 1747 
Q 2906 2381 2643 2742 
Q 2381 3103 1925 3103 
Q 1469 3103 1208 2742 
Q 947 2381 947 1747 
z
" transform="scale(0.015625)"/>
       <path id="DejaVuSans-6f" d="M 1959 3097 
Q 1497 3097 1228 2736 
Q 959 2375 959 1747 
Q 959 1119 1226 758 
Q 1494 397 1959 397 
Q 2419 397 2687 759 
Q 2956 1122 2956 1747 
Q 2956 2369 2687 2733 
Q 2419 3097 1959 3097 
z
M 1959 3584 
Q 2709 3584 3137 3096 
Q 3566 2609 3566 1747 
Q 3566 888 3137 398 
Q 2709 -91 1959 -91 
Q 1206 -91 779 398 
Q 353 888 353 1747 
Q 353 2609 779 3096 
Q 1206 3584 1959 3584 
z
" transform="scale(0.015625)"/>
       <path id="DejaVuSans-29" d="M 513 4856 
L 1013 4856 
Q 1481 4119 1714 3412 
Q 1947 2706 1947 2009 
Q 1947 1309 1714 600 
Q 1481 -109 1013 -844 
L 513 -844 
Q 928 -128 1133 580 
Q 1338 1288 1338 2009 
Q 1338 2731 1133 3434 
Q 928 4138 513 4856 
z
" transform="scale(0.015625)"/>
      </defs>
      <use xlink:href="#DejaVuSans-4d"/>
      <use xlink:href="#DejaVuSans-65" x="86.279297"/>
      <use xlink:href="#DejaVuSans-61" x="147.802734"/>
      <use xlink:href="#DejaVuSans-6e" x="209.082031"/>
      <use xlink:href="#DejaVuSans-20" x="272.460938"/>
      <use xlink:href="#DejaVuSans-53" x="304.248047"/>
      <use xlink:href="#DejaVuSans-65" x="367.724609"/>
      <use xlink:href="#DejaVuSans-71" x="429.248047"/>
      <use xlink:href="#DejaVuSans-75" x="492.724609"/>
      <use xlink:href="#DejaVuSans-65" x="556.103516"/>
      <use xlink:href="#DejaVuSans-6e" x="617.626953"/>
      <use xlink:href="#DejaVuSans-63" x="681.005859"/>
      <use xlink:href="#DejaVuSans-65" x="735.986328"/>
      <use xlink:href="#DejaVuSans-20" x="797.509766"/>
      <use xlink:href="#DejaVuSans-51" x="829.296875"/>
      <use xlink:href="#DejaVuSans-75" x="908.007812"/>
      <use xlink:href="#DejaVuSans-61" x="971.386719"/>
      <use xlink:href="#DejaVuSans-6c" x="1032.666016"/>
      <use xlink:href="#DejaVuSans-69" x="1060.449219"/>
      <use xlink:href="#DejaVuSans-74" x="1088.232422"/>
      <use xlink:href="#DejaVuSans-79" x="1127.441406"/>
      <use xlink:href="#DejaVuSans-20" x="1186.621094"/>
      <use xlink:href="#DejaVuSans-28" x="1218.408203"/>
      <use xlink:href="#DejaVuSans-50" x="1257.421875"/>
      <use xlink:href="#DejaVuSans-68" x="1317.724609"/>
      <use xlink:href="#DejaVuSans-72" x="1381.103516"/>
      <use xlink:href="#DejaVuSans-65" x="1419.966797"/>
      <use xlink:href="#DejaVuSans-64" x="1481.490234"/>
      <use xlink:href="#DejaVuSans-20" x="1544.966797"/>
      <use xlink:href="#DejaVuSans-53" x="1576.753906"/>
      <use xlink:href="#DejaVuSans-63" x="1640.230469"/>
      <use xlink:href="#DejaVuSans-6f" x="1695.210938"/>
      <use xlink:href="#DejaVuSans-72" x="1756.392578"/>
      <use xlink:href="#DejaVuSans-65" x="1795.255859"/>
      <use xlink:href="#DejaVuSans-29" x="1856.779297"/>
     </g>
    </g>
   </g>
   <g id="matplotlib.axis_2">
    <g id="ytick_1">
     <g id="line2d_1">
      <path d="M 40.600625 353.2239 
L 993.140625 353.2239 
" clip-path="url(#pb21c4d310f)" style="fill: none; stroke: #dedede; stroke-linecap: square"/>
     </g>
     <g id="text_11">
      <!-- 0.0 -->
      <g transform="translate(20.878125 356.263275) scale(0.08 -0.08)">
       <defs>
        <path id="DejaVuSans-2e" d="M 684 794 
L 1344 794 
L 1344 0 
L 684 0 
L 684 794 
z
" transform="scale(0.015625)"/>
       </defs>
       <use xlink:href="#DejaVuSans-30"/>
       <use xlink:href="#DejaVuSans-2e" x="63.623047"/>
       <use xlink:href="#DejaVuSans-30" x="95.410156"/>
      </g>
     </g>
    </g>
    <g id="ytick_2">
     <g id="line2d_2">
      <path d="M 40.600625 294.615987 
L 993.140625 294.615987 
" clip-path="url(#pb21c4d310f)" style="fill: none; stroke: #dedede; stroke-linecap: square"/>
     </g>
     <g id="text_12">
      <!-- 0.5 -->
      <g transform="translate(20.878125 297.655362) scale(0.08 -0.08)">
       <use xlink:href="#DejaVuSans-30"/>
       <use xlink:href="#DejaVuSans-2e" x="63.623047"/>
       <use xlink:href="#DejaVuSans-35" x="95.410156"/>
      </g>
     </g>
    </g>
    <g id="ytick_3">
     <g id="line2d_3">
      <path d="M 40.600625 236.008073 
L 993.140625 236.008073 
" clip-path="url(#pb21c4d310f)" style="fill: none; stroke: #dedede; stroke-linecap: square"/>
     </g>
     <g id="text_13">
      <!-- 1.0 -->
      <g transform="translate(20.878125 239.047448) scale(0.08 -0.08)">
       <use xlink:href="#DejaVuSans-31"/>
       <use xlink:href="#DejaVuSans-2e" x="63.623047"/>
       <use xlink:href="#DejaVuSans-30" x="95.410156"/>
      </g>
     </g>
    </g>
    <g id="ytick_4">
     <g id="line2d_4">
      <path d="M 40.600625 177.40016 
L 993.140625 177.40016 
" clip-path="url(#pb21c4d310f)" style="fill: none; stroke: #dedede; stroke-linecap: square"/>
     </g>
     <g id="text_14">
      <!-- 1.5 -->
      <g transform="translate(20.878125 180.439535) scale(0.08 -0.08)">
       <use xlink:href="#DejaVuSans-31"/>
       <use xlink:href="#DejaVuSans-2e" x="63.623047"/>
       <use xlink:href="#DejaVuSans-35" x="95.410156"/>
      </g>
     </g>
    </g>
    <g id="ytick_5">
     <g id="line2d_5">
      <path d="M 40.600625 118.792246 
L 993.140625 118.792246 
" clip-path="url(#pb21c4d310f)" style="fill: none; stroke: #dedede; stroke-linecap: square"/>
     </g>
     <g id="text_15">
      <!-- 2.0 -->
      <g transform="translate(20.878125 121.831621) scale(0.08 -0.08)">
       <use xlink:href="#DejaVuSans-32"/>
       <use xlink:href="#DejaVuSans-2e" x="63.623047"/>
       <use xlink:href="#DejaVuSans-30" x="95.410156"/>
      </g>
     </g>
    </g>
    <g id="ytick_6">
     <g id="line2d_6">
      <path d="M 40.600625 60.184333 
L 993.140625 60.184333 
" clip-path="url(#pb21c4d310f)" style="fill: none; stroke: #dedede; stroke-linecap: square"/>
     </g>
     <g id="text_16">
      <!-- 2.5 -->
      <g transform="translate(20.878125 63.223708) scale(0.08 -0.08)">
       <use xlink:href="#DejaVuSans-32"/>
       <use xlink:href="#DejaVuSans-2e" x="63.623047"/>
       <use xlink:href="#DejaVuSans-35" x="95.410156"/>
      </g>
     </g>
    </g>
    <g id="text_17">
     <!-- Count -->
     <g transform="translate(14.798438 209.088338) rotate(-90) scale(0.1 -0.1)">
      <defs>
       <path id="DejaVuSans-43" d="M 4122 4306 
L 4122 3641 
Q 3803 3938 3442 4084 
Q 3081 4231 2675 4231 
Q 1875 4231 1450 3742 
Q 1025 3253 1025 2328 
Q 1025 1406 1450 917 
Q 1875 428 2675 428 
Q 3081 428 3442 575 
Q 3803 722 4122 1019 
L 4122 359 
Q 3791 134 3420 21 
Q 3050 -91 2638 -91 
Q 1578 -91 968 557 
Q 359 1206 359 2328 
Q 359 3453 968 4101 
Q 1578 4750 2638 4750 
Q 3056 4750 3426 4639 
Q 3797 4528 4122 4306 
z
" transform="scale(0.015625)"/>
      </defs>
      <use xlink:href="#DejaVuSans-43"/>
      <use xlink:href="#DejaVuSans-6f" x="69.824219"/>
      <use xlink:href="#DejaVuSans-75" x="131.005859"/>
      <use xlink:href="#DejaVuSans-6e" x="194.384766"/>
      <use xlink:href="#DejaVuSans-74" x="257.763672"/>
     </g>
    </g>
    <g id="text_18">
     <!-- 1e7 -->
     <g transform="translate(40.600625 32.2559) scale(0.1 -0.1)">
      <defs>
       <path id="DejaVuSans-37" d="M 525 4666 
L 3525 4666 
L 3525 4397 
L 1831 0 
L 1172 0 
L 2766 4134 
L 525 4134 
L 525 4666 
z
" transform="scale(0.015625)"/>
      </defs>
      <use xlink:href="#DejaVuSans-31"/>
      <use xlink:href="#DejaVuSans-65" x="63.623047"/>
      <use xlink:href="#DejaVuSans-37" x="125.146484"/>
     </g>
    </g>
   </g>
   <g id="line2d_7">
    <path d="M 404.33905 353.223841 
L 427.072701 353.222329 
L 449.806353 353.202684 
L 472.540004 353.11973 
L 495.273656 352.931599 
L 518.007308 352.748109 
L 540.740959 352.631233 
L 563.474611 352.560482 
L 586.208262 352.439328 
L 608.941914 352.349951 
L 631.675565 352.160588 
L 654.409217 352.008231 
L 677.142868 351.7354 
L 699.87652 351.473516 
L 722.610172 350.999788 
L 745.343823 350.443693 
L 768.077475 349.407974 
L 790.811126 348.43391 
L 813.544778 346.621215 
L 836.278429 343.775074 
L 859.012081 337.324628 
L 881.745732 324.591871 
L 904.479384 275.543952 
L 927.213036 69.516365 
L 949.946687 321.982659 
" clip-path="url(#pb21c4d310f)" style="fill: none; stroke: #5cb85c; stroke-linecap: square"/>
   </g>
   <g id="line2d_8">
    <path d="M 290.670792 353.223877 
L 313.404444 353.223853 
L 336.138095 353.223795 
L 358.871747 353.223654 
L 381.605398 353.221169 
L 404.33905 353.203786 
L 427.072701 353.149808 
L 449.806353 353.034421 
L 472.540004 352.894465 
L 495.273656 352.749024 
L 518.007308 352.709393 
L 540.740959 352.697331 
L 563.474611 352.663714 
L 586.208262 352.571137 
L 608.941914 352.500725 
L 631.675565 352.335779 
L 654.409217 352.21282 
L 677.142868 352.025134 
L 699.87652 351.856952 
L 722.610172 351.534586 
L 745.343823 351.265481 
L 768.077475 350.761746 
L 790.811126 350.124901 
L 813.544778 348.86292 
L 836.278429 346.907854 
L 859.012081 342.190925 
L 881.745732 332.071566 
L 904.479384 291.742863 
L 927.213036 50.397233 
L 949.946687 301.98674 
" clip-path="url(#pb21c4d310f)" style="fill: none; stroke: #5cb85c; stroke-linecap: square"/>
   </g>
   <g id="line2d_9">
    <path d="M 404.33905 353.223877 
L 427.072701 353.221966 
L 449.806353 353.197304 
L 472.540004 353.107411 
L 495.273656 352.920663 
L 518.007308 352.751204 
L 540.740959 352.63795 
L 563.474611 352.565757 
L 586.208262 352.440898 
L 608.941914 352.341851 
L 631.675565 352.157306 
L 654.409217 351.995244 
L 677.142868 351.728894 
L 699.87652 351.4555 
L 722.610172 350.926622 
L 745.343823 350.217888 
L 768.077475 349.211637 
L 790.811126 348.334617 
L 813.544778 346.600397 
L 836.278429 343.935296 
L 859.012081 338.146874 
L 881.745732 327.634161 
L 904.479384 287.047853 
L 927.213036 63.572011 
L 949.946687 312.435254 
" clip-path="url(#pb21c4d310f)" style="fill: none; stroke: #5cb85c; stroke-linecap: square"/>
   </g>
   <g id="line2d_10">
    <path d="M 267.937141 353.223865 
L 290.670792 353.2239 
L 313.404444 353.223888 
L 336.138095 353.223888 
L 358.871747 353.223595 
L 381.605398 353.221181 
L 404.33905 353.206423 
L 427.072701 353.155528 
L 449.806353 353.051182 
L 472.540004 352.930028 
L 495.273656 352.791198 
L 518.007308 352.768728 
L 540.740959 352.75295 
L 563.474611 352.719778 
L 586.208262 352.637059 
L 608.941914 352.558583 
L 631.675565 352.416142 
L 654.409217 352.295152 
L 677.142868 352.105005 
L 699.87652 351.917506 
L 722.610172 351.582503 
L 745.343823 351.300529 
L 768.077475 350.74012 
L 790.811126 350.035946 
L 813.544778 348.663149 
L 836.278429 346.546935 
L 859.012081 342.025604 
L 881.745732 332.738946 
L 904.479384 297.399124 
L 927.213036 52.725726 
L 949.946687 292.747672 
" clip-path="url(#pb21c4d310f)" style="fill: none; stroke: #5cb85c; stroke-linecap: square"/>
   </g>
   <g id="line2d_11">
    <path d="M 86.067928 353.182886 
L 108.80158 353.217547 
L 131.535231 353.213491 
L 154.268883 353.210502 
L 177.002534 353.206282 
L 199.736186 353.193787 
L 222.469837 353.18482 
L 245.203489 353.190552 
L 267.937141 353.180132 
L 290.670792 353.176979 
L 313.404444 353.177822 
L 336.138095 353.171821 
L 358.871747 353.162432 
L 381.605398 353.155141 
L 404.33905 353.138954 
L 427.072701 353.116272 
L 449.806353 353.083815 
L 472.540004 353.054617 
L 495.273656 353.016932 
L 518.007308 352.969354 
L 540.740959 352.926969 
L 563.474611 352.876765 
L 586.208262 352.805885 
L 608.941914 352.722486 
L 631.675565 352.605504 
L 654.409217 352.4949 
L 677.142868 352.366455 
L 699.87652 352.180984 
L 722.610172 351.910672 
L 745.343823 351.53414 
L 768.077475 350.972547 
L 790.811126 350.077265 
L 813.544778 348.414781 
L 836.278429 344.974989 
L 859.012081 335.018254 
L 881.745732 291.709468 
L 904.479384 337.338741 
L 927.213036 353.223877 
" clip-path="url(#pb21c4d310f)" style="fill: none; stroke: #5cb85c; stroke-linecap: square"/>
   </g>
   <g id="line2d_12">
    <path d="M 86.067928 352.235606 
L 108.80158 353.185957 
L 131.535231 353.193682 
L 154.268883 353.175337 
L 177.002534 353.186098 
L 199.736186 353.182652 
L 222.469837 353.176099 
L 245.203489 353.167566 
L 267.937141 353.156255 
L 290.670792 353.142048 
L 313.404444 353.127338 
L 336.138095 353.107118 
L 358.871747 353.081588 
L 381.605398 353.049881 
L 404.33905 353.015783 
L 427.072701 352.976821 
L 449.806353 352.930614 
L 472.540004 352.88483 
L 495.273656 352.840253 
L 518.007308 352.792956 
L 540.740959 352.735954 
L 563.474611 352.677276 
L 586.208262 352.597041 
L 608.941914 352.50042 
L 631.675565 352.373769 
L 654.409217 352.206971 
L 677.142868 351.981377 
L 699.87652 351.688103 
L 722.610172 351.266208 
L 745.343823 350.677796 
L 768.077475 349.77418 
L 790.811126 348.304258 
L 813.544778 345.658521 
L 836.278429 340.335809 
L 859.012081 326.838442 
L 881.745732 307.465256 
L 904.479384 346.245057 
" clip-path="url(#pb21c4d310f)" style="fill: none; stroke: #5cb85c; stroke-linecap: square"/>
   </g>
   <g id="line2d_13">
    <path d="M 86.067928 353.176228 
L 108.80158 353.220559 
L 131.535231 353.219411 
L 154.268883 353.212425 
L 177.002534 353.207982 
L 199.736186 353.206071 
L 222.469837 353.201348 
L 245.203489 353.190951 
L 267.937141 353.191584 
L 290.670792 353.18237 
L 313.404444 353.170332 
L 336.138095 353.162936 
L 358.871747 353.150195 
L 381.605398 353.136609 
L 404.33905 353.11687 
L 427.072701 353.090977 
L 449.806353 353.05178 
L 472.540004 353.011892 
L 495.273656 352.995036 
L 518.007308 352.957105 
L 540.740959 352.910934 
L 563.474611 352.852912 
L 586.208262 352.778574 
L 608.941914 352.671649 
L 631.675565 352.534085 
L 654.409217 352.352424 
L 677.142868 352.135739 
L 699.87652 351.868287 
L 722.610172 351.512467 
L 745.343823 351.084664 
L 768.077475 350.469082 
L 790.811126 349.565406 
L 813.544778 348.000751 
L 836.278429 344.773975 
L 859.012081 337.471101 
L 881.745732 302.783878 
L 904.479384 293.662905 
L 927.213036 353.220161 
" clip-path="url(#pb21c4d310f)" style="fill: none; stroke: #5cb85c; stroke-linecap: square"/>
   </g>
   <g id="line2d_14">
    <path d="M 86.067928 352.831121 
L 108.80158 353.205192 
L 131.535231 353.196999 
L 154.268883 353.188806 
L 177.002534 353.185641 
L 199.736186 353.177858 
L 222.469837 353.17202 
L 245.203489 353.160779 
L 267.937141 353.146807 
L 290.670792 353.132003 
L 313.404444 353.11857 
L 336.138095 353.099452 
L 358.871747 353.074251 
L 381.605398 353.042051 
L 404.33905 353.004788 
L 427.072701 352.967537 
L 449.806353 352.934412 
L 472.540004 352.892378 
L 495.273656 352.850075 
L 518.007308 352.798535 
L 540.740959 352.73797 
L 563.474611 352.665624 
L 586.208262 352.564725 
L 608.941914 352.430923 
L 631.675565 352.2694 
L 654.409217 352.072911 
L 677.142868 351.829348 
L 699.87652 351.524247 
L 722.610172 351.126018 
L 745.343823 350.611253 
L 768.077475 349.86957 
L 790.811126 348.719577 
L 813.544778 346.711963 
L 836.278429 342.641198 
L 859.012081 334.068384 
L 881.745732 296.882202 
L 904.479384 312.373633 
L 927.213036 353.223431 
" clip-path="url(#pb21c4d310f)" style="fill: none; stroke: #5cb85c; stroke-linecap: square"/>
   </g>
   <g id="line2d_15">
    <path d="M 86.067928 353.221356 
L 108.80158 353.222798 
L 131.535231 353.221767 
L 154.268883 353.220489 
L 177.002534 353.217652 
L 199.736186 353.210057 
L 222.469837 353.192592 
L 245.203489 353.17406 
L 267.937141 353.148917 
L 290.670792 353.118464 
L 313.404444 353.085691 
L 336.138095 353.045263 
L 358.871747 353.004226 
L 381.605398 352.961676 
L 404.33905 352.914063 
L 427.072701 352.845387 
L 449.806353 352.760675 
L 472.540004 352.670864 
L 495.273656 352.568605 
L 518.007308 352.457414 
L 540.740959 352.327926 
L 563.474611 352.129503 
L 586.208262 351.843309 
L 608.941914 351.431705 
L 631.675565 350.782857 
L 654.409217 349.606116 
L 677.142868 350.627511 
L 699.87652 350.294817 
L 722.610172 349.589272 
L 745.343823 348.666256 
L 768.077475 347.470127 
L 790.811126 345.761718 
L 813.544778 343.049824 
L 836.278429 338.266621 
L 859.012081 328.376841 
L 881.745732 308.646932 
L 904.479384 297.379795 
L 927.213036 341.969786 
L 949.946687 353.211768 
" clip-path="url(#pb21c4d310f)" style="fill: none; stroke: #5cb85c; stroke-linecap: square"/>
   </g>
   <g id="line2d_16">
    <path d="M 86.067928 347.703574 
L 108.80158 352.415158 
L 131.535231 352.961161 
L 154.268883 352.991391 
L 177.002534 352.86236 
L 199.736186 352.823256 
L 222.469837 352.837393 
L 245.203489 352.791374 
L 267.937141 352.721279 
L 290.670792 352.662307 
L 313.404444 352.627459 
L 336.138095 352.596631 
L 358.871747 352.570902 
L 381.605398 352.54753 
L 404.33905 352.535046 
L 427.072701 352.500397 
L 449.806353 352.468878 
L 472.540004 352.41715 
L 495.273656 352.358062 
L 518.007308 352.261499 
L 540.740959 352.157084 
L 563.474611 352.026927 
L 586.208262 351.852909 
L 608.941914 351.645835 
L 631.675565 351.392719 
L 654.409217 351.083492 
L 677.142868 350.696387 
L 699.87652 350.209836 
L 722.610172 349.599446 
L 745.343823 348.752011 
L 768.077475 347.640465 
L 790.811126 345.984733 
L 813.544778 343.343016 
L 836.278429 338.721981 
L 859.012081 329.057173 
L 881.745732 310.490878 
L 904.479384 302.547712 
L 927.213036 343.625389 
L 949.946687 353.213901 
" clip-path="url(#pb21c4d310f)" style="fill: none; stroke: #5cb85c; stroke-linecap: square"/>
   </g>
   <g id="line2d_17">
    <path d="M 177.002534 353.223853 
L 199.736186 353.222388 
L 222.469837 353.219551 
L 245.203489 353.218051 
L 267.937141 353.218918 
L 290.670792 353.219164 
L 313.404444 353.218907 
L 336.138095 353.217793 
L 358.871747 353.212929 
L 381.605398 353.200891 
L 404.33905 353.176158 
L 427.072701 353.13076 
L 449.806353 353.054207 
L 472.540004 352.944879 
L 495.273656 352.776886 
L 518.007308 352.523477 
L 540.740959 352.252474 
L 563.474611 352.030174 
L 586.208262 351.754705 
L 608.941914 351.407066 
L 631.675565 351.021168 
L 654.409217 350.546128 
L 677.142868 349.942783 
L 699.87652 349.200478 
L 722.610172 348.49866 
L 745.343823 348.093363 
L 768.077475 347.100346 
L 790.811126 345.432013 
L 813.544778 342.861986 
L 836.278429 338.45882 
L 859.012081 329.322702 
L 881.745732 310.100947 
L 904.479384 283.977068 
L 927.213036 330.751364 
L 949.946687 353.166535 
" clip-path="url(#pb21c4d310f)" style="fill: none; stroke: #5cb85c; stroke-linecap: square"/>
   </g>
   <g id="line2d_18">
    <path d="M 86.067928 353.221544 
L 108.80158 353.214968 
L 131.535231 353.208885 
L 154.268883 353.208592 
L 177.002534 353.209471 
L 199.736186 353.199167 
L 222.469837 353.046365 
L 245.203489 352.118883 
L 267.937141 350.467839 
L 290.670792 350.664164 
L 313.404444 351.974391 
L 336.138095 352.520242 
L 358.871747 352.639626 
L 381.605398 352.652907 
L 404.33905 352.628127 
L 427.072701 352.57511 
L 449.806353 352.512365 
L 472.540004 352.433467 
L 495.273656 352.336107 
L 518.007308 352.233016 
L 540.740959 352.09272 
L 563.474611 351.944349 
L 586.208262 351.757917 
L 608.941914 351.525654 
L 631.675565 351.23858 
L 654.409217 350.893239 
L 677.142868 350.490239 
L 699.87652 350.024728 
L 722.610172 349.410154 
L 745.343823 348.602303 
L 768.077475 347.625192 
L 790.811126 345.971581 
L 813.544778 343.44374 
L 836.278429 339.312655 
L 859.012081 330.926777 
L 881.745732 312.830681 
L 904.479384 287.339369 
L 927.213036 329.947134 
L 949.946687 353.150945 
" clip-path="url(#pb21c4d310f)" style="fill: none; stroke: #5cb85c; stroke-linecap: square"/>
   </g>
   <g id="line2d_19">
    <path d="M 427.072701 353.223208 
L 449.806353 353.214183 
L 472.540004 353.176791 
L 495.273656 353.095185 
L 518.007308 353.02114 
L 540.740959 352.974558 
L 563.474611 352.943133 
L 586.208262 352.890444 
L 608.941914 352.851189 
L 631.675565 352.781363 
L 654.409217 352.719966 
L 677.142868 352.618855 
L 699.87652 352.522316 
L 722.610172 352.350431 
L 745.343823 352.154845 
L 768.077475 351.79988 
L 790.811126 351.437918 
L 813.544778 350.800099 
L 836.278429 349.831815 
L 859.012081 347.719363 
L 881.745732 343.838581 
L 904.479384 328.913513 
L 927.213036 234.176166 
L 949.946687 332.933524 
" clip-path="url(#pb21c4d310f)" style="fill: none; stroke: #5cb85c; stroke-linecap: square"/>
   </g>
   <g id="line2d_20">
    <path d="M 336.138095 353.223865 
L 358.871747 353.223712 
L 381.605398 353.222575 
L 404.33905 353.212026 
L 427.072701 353.17801 
L 449.806353 353.109732 
L 472.540004 353.037527 
L 495.273656 352.970374 
L 518.007308 352.967666 
L 540.740959 352.96701 
L 563.474611 352.950928 
L 586.208262 352.910582 
L 608.941914 352.874925 
L 631.675565 352.81164 
L 654.409217 352.757803 
L 677.142868 352.678436 
L 699.87652 352.608892 
L 722.610172 352.476555 
L 745.343823 352.365915 
L 768.077475 352.169391 
L 790.811126 351.926602 
L 813.544778 351.452183 
L 836.278429 350.714485 
L 859.012081 348.982363 
L 881.745732 345.436444 
L 904.479384 331.426738 
L 927.213036 230.770483 
L 949.946687 328.457204 
" clip-path="url(#pb21c4d310f)" style="fill: none; stroke: #5cb85c; stroke-linecap: square"/>
   </g>
   <g id="line2d_21">
    <path d="M 404.33905 353.223853 
L 427.072701 353.223115 
L 449.806353 353.210995 
L 472.540004 353.164167 
L 495.273656 353.055965 
L 518.007308 352.953811 
L 540.740959 352.883048 
L 563.474611 352.836853 
L 586.208262 352.769595 
L 608.941914 352.71843 
L 631.675565 352.620344 
L 654.409217 352.532737 
L 677.142868 352.393871 
L 699.87652 352.245511 
L 722.610172 351.991926 
L 745.343823 351.737756 
L 768.077475 351.261766 
L 790.811126 350.646019 
L 813.544778 349.566262 
L 836.278429 348.068666 
L 859.012081 344.926074 
L 881.745732 339.230804 
L 904.479384 317.112857 
L 927.213036 176.710919 
L 949.946687 324.90043 
" clip-path="url(#pb21c4d310f)" style="fill: none; stroke: #5cb85c; stroke-linecap: square"/>
   </g>
   <g id="line2d_22">
    <path d="M 336.138095 353.223865 
L 358.871747 353.223736 
L 381.605398 353.222025 
L 404.33905 353.211698 
L 427.072701 353.178666 
L 449.806353 353.101011 
L 472.540004 353.004601 
L 495.273656 352.901322 
L 518.007308 352.88415 
L 540.740959 352.877867 
L 563.474611 352.860214 
L 586.208262 352.810222 
L 608.941914 352.772127 
L 631.675565 352.683441 
L 654.409217 352.621598 
L 677.142868 352.504769 
L 699.87652 352.402873 
L 722.610172 352.220826 
L 745.343823 352.06072 
L 768.077475 351.771057 
L 790.811126 351.413947 
L 813.544778 350.686939 
L 836.278429 349.586177 
L 859.012081 347.019045 
L 881.745732 341.696415 
L 904.479384 320.379006 
L 927.213036 171.400175 
L 949.946687 317.938982 
" clip-path="url(#pb21c4d310f)" style="fill: none; stroke: #5cb85c; stroke-linecap: square"/>
   </g>
   <g id="line2d_23">
    <path d="M 404.33905 353.223877 
L 427.072701 353.222798 
L 449.806353 353.210139 
L 472.540004 353.15997 
L 495.273656 353.050221 
L 518.007308 352.946204 
L 540.740959 352.877691 
L 563.474611 352.835177 
L 586.208262 352.765867 
L 608.941914 352.714035 
L 631.675565 352.608294 
L 654.409217 352.526044 
L 677.142868 352.376488 
L 699.87652 352.237564 
L 722.610172 351.974426 
L 745.343823 351.69714 
L 768.077475 351.152872 
L 790.811126 350.543373 
L 813.544778 349.55583 
L 836.278429 348.091687 
L 859.012081 344.858089 
L 881.745732 338.824065 
L 904.479384 314.938152 
L 927.213036 169.253437 
L 949.946687 324.30175 
" clip-path="url(#pb21c4d310f)" style="fill: none; stroke: #5cb85c; stroke-linecap: square"/>
   </g>
   <g id="line2d_24">
    <path d="M 245.203489 353.223888 
L 267.937141 353.2239 
L 290.670792 353.2239 
L 313.404444 353.2239 
L 336.138095 353.223888 
L 358.871747 353.223654 
L 381.605398 353.221556 
L 404.33905 353.208181 
L 427.072701 353.165409 
L 449.806353 353.07813 
L 472.540004 352.972425 
L 495.273656 352.861211 
L 518.007308 352.844894 
L 540.740959 352.840675 
L 563.474611 352.823983 
L 586.208262 352.768388 
L 608.941914 352.724373 
L 631.675565 352.62937 
L 654.409217 352.560623 
L 677.142868 352.448892 
L 699.87652 352.327668 
L 722.610172 352.13752 
L 745.343823 351.969937 
L 768.077475 351.643221 
L 790.811126 351.247125 
L 813.544778 350.461533 
L 836.278429 349.242489 
L 859.012081 346.344081 
L 881.745732 340.207868 
L 904.479384 315.926902 
L 927.213036 166.009219 
L 949.946687 320.503688 
" clip-path="url(#pb21c4d310f)" style="fill: none; stroke: #5cb85c; stroke-linecap: square"/>
   </g>
   <g id="line2d_25">
    <path d="M 404.33905 353.223865 
L 427.072701 353.222364 
L 449.806353 353.204595 
L 472.540004 353.139973 
L 495.273656 352.998975 
L 518.007308 352.869873 
L 540.740959 352.78808 
L 563.474611 352.733 
L 586.208262 352.642791 
L 608.941914 352.56653 
L 631.675565 352.433092 
L 654.409217 352.317564 
L 677.142868 352.119352 
L 699.87652 351.933576 
L 722.610172 351.59249 
L 745.343823 351.20283 
L 768.077475 350.525814 
L 790.811126 349.833585 
L 813.544778 348.640621 
L 836.278429 346.825076 
L 859.012081 342.772386 
L 881.745732 335.145515 
L 904.479384 305.696129 
L 927.213036 138.191255 
L 949.946687 320.739479 
" clip-path="url(#pb21c4d310f)" style="fill: none; stroke: #5cb85c; stroke-linecap: square"/>
   </g>
   <g id="line2d_26">
    <path d="M 245.203489 353.223888 
L 267.937141 353.2239 
L 290.670792 353.2239 
L 313.404444 353.223888 
L 336.138095 353.223877 
L 358.871747 353.223619 
L 381.605398 353.221802 
L 404.33905 353.208732 
L 427.072701 353.163499 
L 449.806353 353.069327 
L 472.540004 352.959086 
L 495.273656 352.841647 
L 518.007308 352.826808 
L 540.740959 352.813129 
L 563.474611 352.774975 
L 586.208262 352.698363 
L 608.941914 352.629745 
L 631.675565 352.491747 
L 654.409217 352.398595 
L 677.142868 352.238865 
L 699.87652 352.087235 
L 722.610172 351.834658 
L 745.343823 351.625158 
L 768.077475 351.239553 
L 790.811126 350.74291 
L 813.544778 349.795654 
L 836.278429 348.365503 
L 859.012081 344.929298 
L 881.745732 337.642201 
L 904.479384 309.293694 
L 927.213036 132.320488 
L 949.946687 313.370366 
" clip-path="url(#pb21c4d310f)" style="fill: none; stroke: #5cb85c; stroke-linecap: square"/>
   </g>
   <g id="line2d_27">
    <path d="M 404.33905 353.223877 
L 427.072701 353.222962 
L 449.806353 353.213093 
L 472.540004 353.16691 
L 495.273656 353.061603 
L 518.007308 352.961501 
L 540.740959 352.88742 
L 563.474611 352.845539 
L 586.208262 352.779042 
L 608.941914 352.734454 
L 631.675565 352.631081 
L 654.409217 352.547283 
L 677.142868 352.398372 
L 699.87652 352.257842 
L 722.610172 351.989946 
L 745.343823 351.694925 
L 768.077475 351.138513 
L 790.811126 350.60347 
L 813.544778 349.604897 
L 836.278429 348.057835 
L 859.012081 344.774936 
L 881.745732 338.489425 
L 904.479384 314.039341 
L 927.213036 191.121386 
L 949.946687 332.796229 
" clip-path="url(#pb21c4d310f)" style="fill: none; stroke: #5cb85c; stroke-linecap: square"/>
   </g>
   <g id="line2d_28">
    <path d="M 267.937141 353.223888 
L 290.670792 353.2239 
L 313.404444 353.2239 
L 336.138095 353.223888 
L 358.871747 353.223853 
L 381.605398 353.222822 
L 404.33905 353.214534 
L 427.072701 353.188794 
L 449.806353 353.133644 
L 472.540004 353.063232 
L 495.273656 352.97804 
L 518.007308 352.952639 
L 540.740959 352.93467 
L 563.474611 352.912715 
L 586.208262 352.865888 
L 608.941914 352.82975 
L 631.675565 352.755681 
L 654.409217 352.694975 
L 677.142868 352.592587 
L 699.87652 352.504769 
L 722.610172 352.339542 
L 745.343823 352.196503 
L 768.077475 351.936108 
L 790.811126 351.622111 
L 813.544778 351.00307 
L 836.278429 350.01691 
L 859.012081 347.715448 
L 881.745732 342.897057 
L 904.479384 323.425761 
L 927.213036 182.20813 
L 949.946687 318.26047 
" clip-path="url(#pb21c4d310f)" style="fill: none; stroke: #5cb85c; stroke-linecap: square"/>
   </g>
   <g id="line2d_29">
    <path d="M 404.33905 353.223888 
L 427.072701 353.222775 
L 449.806353 353.211487 
L 472.540004 353.164003 
L 495.273656 353.058485 
L 518.007308 352.952651 
L 540.740959 352.885451 
L 563.474611 352.841976 
L 586.208262 352.77215 
L 608.941914 352.714668 
L 631.675565 352.614296 
L 654.409217 352.530815 
L 677.142868 352.383896 
L 699.87652 352.230261 
L 722.610172 351.972855 
L 745.343823 351.708979 
L 768.077475 351.207389 
L 790.811126 350.591455 
L 813.544778 349.44655 
L 836.278429 347.811694 
L 859.012081 344.441856 
L 881.745732 338.193432 
L 904.479384 313.245508 
L 927.213036 175.167374 
L 949.946687 327.280263 
" clip-path="url(#pb21c4d310f)" style="fill: none; stroke: #5cb85c; stroke-linecap: square"/>
   </g>
   <g id="line2d_30">
    <path d="M 290.670792 353.223888 
L 313.404444 353.223888 
L 336.138095 353.2239 
L 358.871747 353.223572 
L 381.605398 353.220407 
L 404.33905 353.201102 
L 427.072701 353.145658 
L 449.806353 353.039555 
L 472.540004 352.92929 
L 495.273656 352.815555 
L 518.007308 352.803412 
L 540.740959 352.809542 
L 563.474611 352.795277 
L 586.208262 352.739834 
L 608.941914 352.703274 
L 631.675565 352.615397 
L 654.409217 352.540649 
L 677.142868 352.422191 
L 699.87652 352.314528 
L 722.610172 352.110608 
L 745.343823 351.918151 
L 768.077475 351.577029 
L 790.811126 351.170208 
L 813.544778 350.358383 
L 836.278429 349.062891 
L 859.012081 346.037855 
L 881.745732 339.65686 
L 904.479384 314.509423 
L 927.213036 171.883983 
L 949.946687 323.717347 
" clip-path="url(#pb21c4d310f)" style="fill: none; stroke: #5cb85c; stroke-linecap: square"/>
   </g>
   <g id="line2d_31">
    <path d="M 40.600625 353.2239 
L 993.140625 353.2239 
" clip-path="url(#pb21c4d310f)" style="fill: none; stroke: #dedede; stroke-width: 2; stroke-linecap: square"/>
   </g>
   <g id="text_19">
    <!-- FastQC: Per Sequence Quality Scores -->
    <g transform="translate(368.678125 19.3575) scale(0.16 -0.16)">
     <defs>
      <path id="DejaVuSans-46" d="M 628 4666 
L 3309 4666 
L 3309 4134 
L 1259 4134 
L 1259 2759 
L 3109 2759 
L 3109 2228 
L 1259 2228 
L 1259 0 
L 628 0 
L 628 4666 
z
" transform="scale(0.015625)"/>
      <path id="DejaVuSans-73" d="M 2834 3397 
L 2834 2853 
Q 2591 2978 2328 3040 
Q 2066 3103 1784 3103 
Q 1356 3103 1142 2972 
Q 928 2841 928 2578 
Q 928 2378 1081 2264 
Q 1234 2150 1697 2047 
L 1894 2003 
Q 2506 1872 2764 1633 
Q 3022 1394 3022 966 
Q 3022 478 2636 193 
Q 2250 -91 1575 -91 
Q 1294 -91 989 -36 
Q 684 19 347 128 
L 347 722 
Q 666 556 975 473 
Q 1284 391 1588 391 
Q 1994 391 2212 530 
Q 2431 669 2431 922 
Q 2431 1156 2273 1281 
Q 2116 1406 1581 1522 
L 1381 1569 
Q 847 1681 609 1914 
Q 372 2147 372 2553 
Q 372 3047 722 3315 
Q 1072 3584 1716 3584 
Q 2034 3584 2315 3537 
Q 2597 3491 2834 3397 
z
" transform="scale(0.015625)"/>
      <path id="DejaVuSans-3a" d="M 750 794 
L 1409 794 
L 1409 0 
L 750 0 
L 750 794 
z
M 750 3309 
L 1409 3309 
L 1409 2516 
L 750 2516 
L 750 3309 
z
" transform="scale(0.015625)"/>
     </defs>
     <use xlink:href="#DejaVuSans-46"/>
     <use xlink:href="#DejaVuSans-61" x="48.394531"/>
     <use xlink:href="#DejaVuSans-73" x="109.673828"/>
     <use xlink:href="#DejaVuSans-74" x="161.773438"/>
     <use xlink:href="#DejaVuSans-51" x="200.982422"/>
     <use xlink:href="#DejaVuSans-43" x="279.693359"/>
     <use xlink:href="#DejaVuSans-3a" x="349.517578"/>
     <use xlink:href="#DejaVuSans-20" x="383.208984"/>
     <use xlink:href="#DejaVuSans-50" x="414.996094"/>
     <use xlink:href="#DejaVuSans-65" x="471.673828"/>
     <use xlink:href="#DejaVuSans-72" x="533.197266"/>
     <use xlink:href="#DejaVuSans-20" x="574.310547"/>
     <use xlink:href="#DejaVuSans-53" x="606.097656"/>
     <use xlink:href="#DejaVuSans-65" x="669.574219"/>
     <use xlink:href="#DejaVuSans-71" x="731.097656"/>
     <use xlink:href="#DejaVuSans-75" x="794.574219"/>
     <use xlink:href="#DejaVuSans-65" x="857.953125"/>
     <use xlink:href="#DejaVuSans-6e" x="919.476562"/>
     <use xlink:href="#DejaVuSans-63" x="982.855469"/>
     <use xlink:href="#DejaVuSans-65" x="1037.835938"/>
     <use xlink:href="#DejaVuSans-20" x="1099.359375"/>
     <use xlink:href="#DejaVuSans-51" x="1131.146484"/>
     <use xlink:href="#DejaVuSans-75" x="1209.857422"/>
     <use xlink:href="#DejaVuSans-61" x="1273.236328"/>
     <use xlink:href="#DejaVuSans-6c" x="1334.515625"/>
     <use xlink:href="#DejaVuSans-69" x="1362.298828"/>
     <use xlink:href="#DejaVuSans-74" x="1390.082031"/>
     <use xlink:href="#DejaVuSans-79" x="1429.291016"/>
     <use xlink:href="#DejaVuSans-20" x="1488.470703"/>
     <use xlink:href="#DejaVuSans-53" x="1520.257812"/>
     <use xlink:href="#DejaVuSans-63" x="1583.734375"/>
     <use xlink:href="#DejaVuSans-6f" x="1638.714844"/>
     <use xlink:href="#DejaVuSans-72" x="1699.896484"/>
     <use xlink:href="#DejaVuSans-65" x="1738.759766"/>
     <use xlink:href="#DejaVuSans-73" x="1800.283203"/>
    </g>
   </g>
  </g>
 </g>
 <defs>
  <clipPath id="pb21c4d310f">
   <rect x="40.600625" y="35.2559" width="952.54" height="317.968"/>
  </clipPath>
 </defs>
</svg>
